<svg xmlns="http://www.w3.org/2000/svg" height="400.0000" stroke-opacity="1" viewBox="0 0 500 400" font-size="1" width="500.0000" xmlns:xlink="http://www.w3.org/1999/xlink" stroke="rgb(0,0,0)" version="1.1"><defs></defs><g stroke-linejoin="miter" stroke-opacity="1.0" fill-opacity="1.0" stroke="rgb(0,0,0)" stroke-width="0.0" fill="rgb(255,255,240)" stroke-linecap="butt" stroke-miterlimit="10.0"><path d="M 444.1406,400.0000 l -0.0000,-400.0000 h -388.2812 l -0.0000,400.0000 Z"/></g><g stroke-linejoin="miter" stroke-opacity="1.0" fill-opacity="0.0" stroke="rgb(0,0,0)" stroke-width="0.8" fill="rgb(0,0,0)" stroke-linecap="butt" stroke-miterlimit="10.0"><path d="M 96.4844,352.2383 h 312.5000 M 96.4844,277.0616 h 312.5000 M 96.4844,201.8848 h 312.5000 M 96.4844,126.7080 h 312.5000 M 96.4844,51.5313 h 312.5000 "/></g><g stroke-linejoin="miter" stroke-opacity="1.0" fill-opacity="0.0" stroke="rgb(0,0,0)" stroke-width="1.5763882770434448" fill="rgb(0,0,0)" stroke-linecap="square" stroke-miterlimit="10.0"><path d="M 96.4844,359.3750 v -312.5000 M 408.9844,359.3750 v -312.5000 "/></g><g stroke-linejoin="miter" stroke-opacity="1.0" fill-opacity="0.0" stroke="rgb(0,0,0)" stroke-width="0.4" fill="rgb(0,0,0)" stroke-linecap="butt" stroke-miterlimit="10.0"><path d="M 408.9844,339.7089 h 2.3438 M 408.9844,327.1794 h 2.3438 M 408.9844,314.6499 h 2.3438 M 408.9844,302.1205 h 2.3438 M 408.9844,289.5910 h 2.3438 M 408.9844,264.5321 h 2.3438 M 408.9844,252.0026 h 2.3438 M 408.9844,239.4732 h 2.3438 M 408.9844,226.9437 h 2.3438 M 408.9844,214.4143 h 2.3438 M 408.9844,189.3553 h 2.3438 M 408.9844,176.8259 h 2.3438 M 408.9844,164.2964 h 2.3438 M 408.9844,151.7670 h 2.3438 M 408.9844,139.2375 h 2.3438 M 408.9844,114.1786 h 2.3438 M 408.9844,101.6491 h 2.3438 M 408.9844,89.1197 h 2.3438 M 408.9844,76.5902 h 2.3438 M 408.9844,64.0608 h 2.3438 "/></g><g stroke-linejoin="miter" stroke-opacity="1.0" fill-opacity="0.0" stroke="rgb(0,0,0)" stroke-width="0.4" fill="rgb(0,0,0)" stroke-linecap="butt" stroke-miterlimit="10.0"><path d="M 408.9844,352.2383 h 3.9062 M 408.9844,277.0616 h 3.9062 M 408.9844,201.8848 h 3.9062 M 408.9844,126.7080 h 3.9062 M 408.9844,51.5313 h 3.9062 "/></g><g stroke-linejoin="miter" stroke-opacity="1.0" fill-opacity="0.0" stroke="rgb(0,0,0)" stroke-width="0.4" fill="rgb(0,0,0)" stroke-linecap="butt" stroke-miterlimit="10.0"><path d="M 94.1406,339.7089 h 2.3438 M 94.1406,327.1794 h 2.3438 M 94.1406,314.6499 h 2.3438 M 94.1406,302.1205 h 2.3438 M 94.1406,289.5910 h 2.3438 M 94.1406,264.5321 h 2.3438 M 94.1406,252.0026 h 2.3438 M 94.1406,239.4732 h 2.3438 M 94.1406,226.9437 h 2.3438 M 94.1406,214.4143 h 2.3438 M 94.1406,189.3553 h 2.3438 M 94.1406,176.8259 h 2.3438 M 94.1406,164.2964 h 2.3438 M 94.1406,151.7670 h 2.3438 M 94.1406,139.2375 h 2.3438 M 94.1406,114.1786 h 2.3438 M 94.1406,101.6491 h 2.3438 M 94.1406,89.1197 h 2.3438 M 94.1406,76.5902 h 2.3438 M 94.1406,64.0608 h 2.3438 "/></g><g stroke-linejoin="miter" stroke-opacity="1.0" fill-opacity="0.0" stroke="rgb(0,0,0)" stroke-width="0.4" fill="rgb(0,0,0)" stroke-linecap="butt" stroke-miterlimit="10.0"><path d="M 92.5781,352.2383 h 3.9062 M 92.5781,277.0616 h 3.9062 M 92.5781,201.8848 h 3.9062 M 92.5781,126.7080 h 3.9062 M 92.5781,51.5313 h 3.9062 "/></g><g stroke-linejoin="miter" stroke-opacity="1.0" fill-opacity="1.0" font-size="11.0px" stroke="rgb(0,0,0)" stroke-width="1.5763882770434448" fill="rgb(0,0,0)" stroke-linecap="butt" stroke-miterlimit="10.0"><text dominant-baseline="middle" transform="matrix(1.0000,0.0000,0.0000,1.0000,87.1094,51.5313)" stroke="none" text-anchor="end">1.0e12</text></g><g stroke-linejoin="miter" stroke-opacity="1.0" fill-opacity="1.0" font-size="11.0px" stroke="rgb(0,0,0)" stroke-width="1.5763882770434448" fill="rgb(0,0,0)" stroke-linecap="butt" stroke-miterlimit="10.0"><text dominant-baseline="middle" transform="matrix(1.0000,0.0000,0.0000,1.0000,87.1094,126.7080)" stroke="none" text-anchor="end">5.0e11</text></g><g stroke-linejoin="miter" stroke-opacity="1.0" fill-opacity="1.0" font-size="11.0px" stroke="rgb(0,0,0)" stroke-width="1.5763882770434448" fill="rgb(0,0,0)" stroke-linecap="butt" stroke-miterlimit="10.0"><text dominant-baseline="middle" transform="matrix(1.0000,0.0000,0.0000,1.0000,87.1094,201.8848)" stroke="none" text-anchor="end">0.0</text></g><g stroke-linejoin="miter" stroke-opacity="1.0" fill-opacity="1.0" font-size="11.0px" stroke="rgb(0,0,0)" stroke-width="1.5763882770434448" fill="rgb(0,0,0)" stroke-linecap="butt" stroke-miterlimit="10.0"><text dominant-baseline="middle" transform="matrix(1.0000,0.0000,0.0000,1.0000,87.1094,277.0616)" stroke="none" text-anchor="end">-5.0e11</text></g><g stroke-linejoin="miter" stroke-opacity="1.0" fill-opacity="1.0" font-size="11.0px" stroke="rgb(0,0,0)" stroke-width="1.5763882770434448" fill="rgb(0,0,0)" stroke-linecap="butt" stroke-miterlimit="10.0"><text dominant-baseline="middle" transform="matrix(1.0000,0.0000,0.0000,1.0000,87.1094,352.2383)" stroke="none" text-anchor="end">-1.0e12</text></g><g stroke-linejoin="miter" stroke-opacity="1.0" fill-opacity="0.0" stroke="rgb(0,0,0)" stroke-width="0.8" fill="rgb(0,0,0)" stroke-linecap="butt" stroke-miterlimit="10.0"><path d="M 98.5889,359.3750 v -312.5000 M 173.6617,359.3750 v -312.5000 M 248.7345,359.3750 v -312.5000 M 323.8073,359.3750 v -312.5000 M 398.8802,359.3750 v -312.5000 "/></g><g stroke-linejoin="miter" stroke-opacity="1.0" fill-opacity="0.0" stroke="rgb(0,0,0)" stroke-width="1.5763882770434448" fill="rgb(0,0,0)" stroke-linecap="square" stroke-miterlimit="10.0"><path d="M 96.4844,359.3750 h 312.5000 M 96.4844,46.8750 h 312.5000 "/></g><g stroke-linejoin="miter" stroke-opacity="1.0" fill-opacity="0.0" stroke="rgb(0,0,0)" stroke-width="0.4" fill="rgb(0,0,0)" stroke-linecap="butt" stroke-miterlimit="10.0"><path d="M 111.1010,46.8750 v -2.3438 M 123.6131,46.8750 v -2.3438 M 136.1253,46.8750 v -2.3438 M 148.6374,46.8750 v -2.3438 M 161.1495,46.8750 v -2.3438 M 186.1738,46.8750 v -2.3438 M 198.6860,46.8750 v -2.3438 M 211.1981,46.8750 v -2.3438 M 223.7102,46.8750 v -2.3438 M 236.2224,46.8750 v -2.3438 M 261.2466,46.8750 v -2.3438 M 273.7588,46.8750 v -2.3438 M 286.2709,46.8750 v -2.3438 M 298.7831,46.8750 v -2.3438 M 311.2952,46.8750 v -2.3438 M 336.3195,46.8750 v -2.3438 M 348.8316,46.8750 v -2.3438 M 361.3437,46.8750 v -2.3438 M 373.8559,46.8750 v -2.3438 M 386.3680,46.8750 v -2.3438 "/></g><g stroke-linejoin="miter" stroke-opacity="1.0" fill-opacity="0.0" stroke="rgb(0,0,0)" stroke-width="0.4" fill="rgb(0,0,0)" stroke-linecap="butt" stroke-miterlimit="10.0"><path d="M 98.5889,46.8750 v -3.9062 M 173.6617,46.8750 v -3.9062 M 248.7345,46.8750 v -3.9062 M 323.8073,46.8750 v -3.9062 M 398.8802,46.8750 v -3.9062 "/></g><g stroke-linejoin="miter" stroke-opacity="1.0" fill-opacity="0.0" stroke="rgb(0,0,0)" stroke-width="0.4" fill="rgb(0,0,0)" stroke-linecap="butt" stroke-miterlimit="10.0"><path d="M 111.1010,361.7188 v -2.3438 M 123.6131,361.7188 v -2.3438 M 136.1253,361.7188 v -2.3438 M 148.6374,361.7188 v -2.3438 M 161.1495,361.7188 v -2.3438 M 186.1738,361.7188 v -2.3438 M 198.6860,361.7188 v -2.3438 M 211.1981,361.7188 v -2.3438 M 223.7102,361.7188 v -2.3438 M 236.2224,361.7188 v -2.3438 M 261.2466,361.7188 v -2.3438 M 273.7588,361.7188 v -2.3438 M 286.2709,361.7188 v -2.3438 M 298.7831,361.7188 v -2.3438 M 311.2952,361.7188 v -2.3438 M 336.3195,361.7188 v -2.3438 M 348.8316,361.7188 v -2.3438 M 361.3437,361.7188 v -2.3438 M 373.8559,361.7188 v -2.3438 M 386.3680,361.7188 v -2.3438 "/></g><g stroke-linejoin="miter" stroke-opacity="1.0" fill-opacity="0.0" stroke="rgb(0,0,0)" stroke-width="0.4" fill="rgb(0,0,0)" stroke-linecap="butt" stroke-miterlimit="10.0"><path d="M 98.5889,363.2812 v -3.9062 M 173.6617,363.2812 v -3.9062 M 248.7345,363.2812 v -3.9062 M 323.8073,363.2812 v -3.9062 M 398.8802,363.2812 v -3.9062 "/></g><g stroke-linejoin="miter" stroke-opacity="1.0" fill-opacity="1.0" font-size="11.0px" stroke="rgb(0,0,0)" stroke-width="1.5763882770434448" fill="rgb(0,0,0)" stroke-linecap="butt" stroke-miterlimit="10.0"><text dominant-baseline="text-before-edge" transform="matrix(1.0000,0.0000,0.0000,1.0000,398.8802,368.7500)" stroke="none" text-anchor="middle">1.0e12</text></g><g stroke-linejoin="miter" stroke-opacity="1.0" fill-opacity="1.0" font-size="11.0px" stroke="rgb(0,0,0)" stroke-width="1.5763882770434448" fill="rgb(0,0,0)" stroke-linecap="butt" stroke-miterlimit="10.0"><text dominant-baseline="text-before-edge" transform="matrix(1.0000,0.0000,0.0000,1.0000,323.8073,368.7500)" stroke="none" text-anchor="middle">5.0e11</text></g><g stroke-linejoin="miter" stroke-opacity="1.0" fill-opacity="1.0" font-size="11.0px" stroke="rgb(0,0,0)" stroke-width="1.5763882770434448" fill="rgb(0,0,0)" stroke-linecap="butt" stroke-miterlimit="10.0"><text dominant-baseline="text-before-edge" transform="matrix(1.0000,0.0000,0.0000,1.0000,248.7345,368.7500)" stroke="none" text-anchor="middle">0.0</text></g><g stroke-linejoin="miter" stroke-opacity="1.0" fill-opacity="1.0" font-size="11.0px" stroke="rgb(0,0,0)" stroke-width="1.5763882770434448" fill="rgb(0,0,0)" stroke-linecap="butt" stroke-miterlimit="10.0"><text dominant-baseline="text-before-edge" transform="matrix(1.0000,0.0000,0.0000,1.0000,173.6617,368.7500)" stroke="none" text-anchor="middle">-5.0e11</text></g><g stroke-linejoin="miter" stroke-opacity="1.0" fill-opacity="1.0" font-size="11.0px" stroke="rgb(0,0,0)" stroke-width="1.5763882770434448" fill="rgb(0,0,0)" stroke-linecap="butt" stroke-miterlimit="10.0"><text dominant-baseline="text-before-edge" transform="matrix(1.0000,0.0000,0.0000,1.0000,98.5889,368.7500)" stroke="none" text-anchor="middle">-1.0e12</text></g><g stroke-linejoin="miter" stroke-opacity="1.0" fill-opacity="0.0" stroke="rgb(255,127,0)" stroke-width="3.0" fill="rgb(0,0,0)" stroke-linecap="butt" stroke-miterlimit="10.0"><defs><clipPath id="myClip1"><path d="M 408.9844,359.3750 l -0.0000,-312.5000 h -312.5000 l -0.0000,312.5000 Z"/></clipPath></defs><g clip-path="url(#myClip1)"><path d="M 137.5406,201.8848 l 1.2141,17.8100 l 3.8817,17.3780 l 6.4307,16.5326 l 8.7942,15.3060 l 10.9148,13.7417 l 12.7460,11.8914 l 14.2535,9.8121 l 15.4147,7.5633 l 16.2185,5.2037 l 16.6635,2.7902 l 16.7568,0.3757 l 16.5125,-1.9915 l 15.9499,-4.2684 l 15.0924,-6.4170 l 13.9664,-8.4048 l 12.6000,-10.2038 l 11.0229,-11.7905 l 9.2652,-13.1454 l 7.3579,-14.2524 l 5.3319,-15.0987 l 3.2187,-15.6743 l 1.0500,-15.9717 l -1.1421,-15.9861 l -3.3250,-15.7152 l -5.4654,-15.1595 l -7.5292,-14.3223 l -9.4818,-13.2101 l -11.2877,-11.8334 l -12.9111,-10.2066 l -14.3162,-8.3494 l -15.4676,-6.2867 l -16.3317,-4.0495 l -16.8774,-1.6756 l -17.0778,0.7907 l -16.9118,3.2985 l -16.3660,5.7909 l -15.4366,8.2061 l -14.1313,10.4795 l -12.4702,12.5461 l -10.4867,14.3432 l -8.2273,15.8141 l -5.7503,16.9113 l -3.1234,17.5995 "/></g></g><g stroke-linejoin="miter" stroke-opacity="1.0" fill-opacity="1.0" opacity="0.55" stroke="rgb(0,0,0)" stroke-width="1.5763882770434448" fill="rgb(165,42,42)" stroke-linecap="butt" stroke-miterlimit="10.0"><defs><clipPath id="myClip2"><path d="M 408.9844,359.3750 l -0.0000,-312.5000 h -312.5000 l -0.0000,312.5000 Z"/></clipPath></defs><g clip-path="url(#myClip2)"><path d="M 170.1958,141.7313 c 0.0000,-8.3038 -6.7222,-15.0354 -15.0146 -15.0354c -8.2923,-0.0000 -15.0146,6.7316 -15.0146 15.0354c -0.0000,8.3038 6.7222,15.0354 15.0146 15.0354c 8.2923,0.0000 15.0146,-6.7316 15.0146 -15.0354Z"/></g></g><g stroke-linejoin="miter" stroke-opacity="1.0" fill-opacity="1.0" opacity="0.5" stroke="rgb(0,0,0)" stroke-width="1.5763882770434448" fill="rgb(165,42,42)" stroke-linecap="butt" stroke-miterlimit="10.0"><defs><clipPath id="myClip3"><path d="M 408.9844,359.3750 l -0.0000,-312.5000 h -312.5000 l -0.0000,312.5000 Z"/></clipPath></defs><g clip-path="url(#myClip3)"><path d="M 222.7206,96.1564 c 0.0000,-8.3038 -6.7222,-15.0354 -15.0146 -15.0354c -8.2923,-0.0000 -15.0146,6.7316 -15.0146 15.0354c -0.0000,8.3038 6.7222,15.0354 15.0146 15.0354c 8.2923,0.0000 15.0146,-6.7316 15.0146 -15.0354Z"/></g></g><g stroke-linejoin="miter" stroke-opacity="1.0" fill-opacity="1.0" opacity="0.45" stroke="rgb(0,0,0)" stroke-width="1.5763882770434448" fill="rgb(165,42,42)" stroke-linecap="butt" stroke-miterlimit="10.0"><defs><clipPath id="myClip4"><path d="M 408.9844,359.3750 l -0.0000,-312.5000 h -312.5000 l -0.0000,312.5000 Z"/></clipPath></defs><g clip-path="url(#myClip4)"><path d="M 289.9535,87.9520 c 0.0000,-8.3038 -6.7222,-15.0354 -15.0146 -15.0354c -8.2923,-0.0000 -15.0146,6.7316 -15.0146 15.0354c -0.0000,8.3038 6.7222,15.0354 15.0146 15.0354c 8.2923,0.0000 15.0146,-6.7316 15.0146 -15.0354Z"/></g></g><g stroke-linejoin="miter" stroke-opacity="1.0" fill-opacity="1.0" opacity="0.4" stroke="rgb(0,0,0)" stroke-width="1.5763882770434448" fill="rgb(165,42,42)" stroke-linecap="butt" stroke-miterlimit="10.0"><defs><clipPath id="myClip5"><path d="M 408.9844,359.3750 l -0.0000,-312.5000 h -312.5000 l -0.0000,312.5000 Z"/></clipPath></defs><g clip-path="url(#myClip5)"><path d="M 348.9802,116.8442 c 0.0000,-8.3038 -6.7222,-15.0354 -15.0146 -15.0354c -8.2923,-0.0000 -15.0146,6.7316 -15.0146 15.0354c -0.0000,8.3038 6.7222,15.0354 15.0146 15.0354c 8.2923,0.0000 15.0146,-6.7316 15.0146 -15.0354Z"/></g></g><g stroke-linejoin="miter" stroke-opacity="1.0" fill-opacity="1.0" opacity="0.35000000000000003" stroke="rgb(0,0,0)" stroke-width="1.5763882770434448" fill="rgb(165,42,42)" stroke-linecap="butt" stroke-miterlimit="10.0"><defs><clipPath id="myClip6"><path d="M 408.9844,359.3750 l -0.0000,-312.5000 h -312.5000 l -0.0000,312.5000 Z"/></clipPath></defs><g clip-path="url(#myClip6)"><path d="M 382.7443,171.3696 c 0.0000,-8.3038 -6.7222,-15.0354 -15.0146 -15.0354c -8.2923,-0.0000 -15.0146,6.7316 -15.0146 15.0354c -0.0000,8.3038 6.7222,15.0354 15.0146 15.0354c 8.2923,0.0000 15.0146,-6.7316 15.0146 -15.0354Z"/></g></g><g stroke-linejoin="miter" stroke-opacity="1.0" fill-opacity="1.0" opacity="0.30000000000000004" stroke="rgb(0,0,0)" stroke-width="1.5763882770434448" fill="rgb(165,42,42)" stroke-linecap="butt" stroke-miterlimit="10.0"><defs><clipPath id="myClip7"><path d="M 408.9844,359.3750 l -0.0000,-312.5000 h -312.5000 l -0.0000,312.5000 Z"/></clipPath></defs><g clip-path="url(#myClip7)"><path d="M 382.9427,234.7168 c 0.0000,-8.3038 -6.7222,-15.0354 -15.0146 -15.0354c -8.2923,-0.0000 -15.0146,6.7316 -15.0146 15.0354c -0.0000,8.3038 6.7222,15.0354 15.0146 15.0354c 8.2923,0.0000 15.0146,-6.7316 15.0146 -15.0354Z"/></g></g><g stroke-linejoin="miter" stroke-opacity="1.0" fill-opacity="1.0" opacity="0.25000000000000006" stroke="rgb(0,0,0)" stroke-width="1.5763882770434448" fill="rgb(165,42,42)" stroke-linecap="butt" stroke-miterlimit="10.0"><defs><clipPath id="myClip8"><path d="M 408.9844,359.3750 l -0.0000,-312.5000 h -312.5000 l -0.0000,312.5000 Z"/></clipPath></defs><g clip-path="url(#myClip8)"><path d="M 349.9648,289.0039 c 0.0000,-8.3038 -6.7222,-15.0354 -15.0146 -15.0354c -8.2923,-0.0000 -15.0146,6.7316 -15.0146 15.0354c -0.0000,8.3038 6.7222,15.0354 15.0146 15.0354c 8.2923,0.0000 15.0146,-6.7316 15.0146 -15.0354Z"/></g></g><g stroke-linejoin="miter" stroke-opacity="1.0" fill-opacity="1.0" opacity="0.20000000000000004" stroke="rgb(0,0,0)" stroke-width="1.5763882770434448" fill="rgb(165,42,42)" stroke-linecap="butt" stroke-miterlimit="10.0"><defs><clipPath id="myClip9"><path d="M 408.9844,359.3750 l -0.0000,-312.5000 h -312.5000 l -0.0000,312.5000 Z"/></clipPath></defs><g clip-path="url(#myClip9)"><path d="M 292.3561,318.2980 c 0.0000,-8.3038 -6.7222,-15.0354 -15.0146 -15.0354c -8.2923,-0.0000 -15.0146,6.7316 -15.0146 15.0354c -0.0000,8.3038 6.7222,15.0354 15.0146 15.0354c 8.2923,0.0000 15.0146,-6.7316 15.0146 -15.0354Z"/></g></g><g stroke-linejoin="miter" stroke-opacity="1.0" fill-opacity="1.0" opacity="0.15000000000000002" stroke="rgb(0,0,0)" stroke-width="1.5763882770434448" fill="rgb(165,42,42)" stroke-linecap="butt" stroke-miterlimit="10.0"><defs><clipPath id="myClip10"><path d="M 408.9844,359.3750 l -0.0000,-312.5000 h -312.5000 l -0.0000,312.5000 Z"/></clipPath></defs><g clip-path="url(#myClip10)"><path d="M 226.2048,311.9199 c 0.0000,-8.3038 -6.7222,-15.0354 -15.0146 -15.0354c -8.2923,-0.0000 -15.0146,6.7316 -15.0146 15.0354c -0.0000,8.3038 6.7222,15.0354 15.0146 15.0354c 8.2923,0.0000 15.0146,-6.7316 15.0146 -15.0354Z"/></g></g><g stroke-linejoin="miter" stroke-opacity="1.0" fill-opacity="1.0" opacity="0.1" stroke="rgb(0,0,0)" stroke-width="1.5763882770434448" fill="rgb(165,42,42)" stroke-linecap="butt" stroke-miterlimit="10.0"><defs><clipPath id="myClip11"><path d="M 408.9844,359.3750 l -0.0000,-312.5000 h -312.5000 l -0.0000,312.5000 Z"/></clipPath></defs><g clip-path="url(#myClip11)"><path d="M 172.8758,268.9115 c 0.0000,-8.3038 -6.7222,-15.0354 -15.0146 -15.0354c -8.2923,-0.0000 -15.0146,6.7316 -15.0146 15.0354c -0.0000,8.3038 6.7222,15.0354 15.0146 15.0354c 8.2923,0.0000 15.0146,-6.7316 15.0146 -15.0354Z"/></g></g><g stroke-linejoin="miter" stroke-opacity="1.0" fill-opacity="1.0" opacity="5.0e-2" stroke="rgb(0,0,0)" stroke-width="1.5763882770434448" fill="rgb(165,42,42)" stroke-linecap="butt" stroke-miterlimit="10.0"><defs><clipPath id="myClip12"><path d="M 408.9844,359.3750 l -0.0000,-312.5000 h -312.5000 l -0.0000,312.5000 Z"/></clipPath></defs><g clip-path="url(#myClip12)"><path d="M 152.5552,201.8848 c 0.0000,-8.3038 -6.7222,-15.0354 -15.0146 -15.0354c -8.2923,-0.0000 -15.0146,6.7316 -15.0146 15.0354c -0.0000,8.3038 6.7222,15.0354 15.0146 15.0354c 8.2923,0.0000 15.0146,-6.7316 15.0146 -15.0354Z"/></g></g><g stroke-linejoin="miter" stroke-opacity="1.0" fill-opacity="1.0" stroke="rgb(0,0,0)" stroke-width="1.5763882770434448" fill="rgb(255,255,0)" stroke-linecap="butt" stroke-miterlimit="10.0"><defs><clipPath id="myClip13"><path d="M 408.9844,359.3750 l -0.0000,-312.5000 h -312.5000 l -0.0000,312.5000 Z"/></clipPath></defs><g clip-path="url(#myClip13)"><path d="M 263.7491,201.8848 c 0.0000,-8.3038 -6.7222,-15.0354 -15.0146 -15.0354c -8.2923,-0.0000 -15.0146,6.7316 -15.0146 15.0354c -0.0000,8.3038 6.7222,15.0354 15.0146 15.0354c 8.2923,0.0000 15.0146,-6.7316 15.0146 -15.0354Z"/></g></g><g stroke-linejoin="miter" stroke-opacity="1.0" fill-opacity="1.0" font-size="11.0px" stroke="rgb(0,0,0)" stroke-width="1.5763882770434448" fill="rgb(0,0,0)" stroke-linecap="butt" stroke-miterlimit="10.0"><text dominant-baseline="text-after-edge" transform="matrix(1.0000,0.0000,0.0000,1.0000,252.7344,31.2500)" stroke="none" text-anchor="middle"></text></g></svg>